<?xml version="1.0" standalone="no"?>
<!DOCTYPE svg PUBLIC "-//W3C//DTD SVG 20010904//EN"
 "http://www.w3.org/TR/2001/REC-SVG-20010904/DTD/svg10.dtd">
<svg version="1.0" xmlns="http://www.w3.org/2000/svg"
 width="260.000000pt" height="260.000000pt" viewBox="0 0 260.000000 260.000000"
 preserveAspectRatio="xMidYMid meet">
<metadata>
Created by potrace 1.11, written by Peter Selinger 2001-2013
</metadata>
<g transform="translate(0.000000,260.000000) scale(0.100000,-0.100000)"
fill="#000000" stroke="none">
<path d="M820 1643 c0 -594 -15 -737 -85 -828 -48 -64 -93 -80 -230 -80 -125
0 -122 -1 -262 61 -8 4 -21 -25 -38 -83 -14 -48 -28 -94 -31 -101 -5 -17 121
-78 194 -93 76 -15 302 -7 368 15 129 41 232 147 275 285 42 134 49 245 49
774 l0 497 -120 0 -120 0 0 -447z"/>
<path d="M1723 1685 c-202 -44 -374 -213 -428 -420 -19 -75 -20 -242 0 -315
20 -77 77 -186 126 -243 57 -66 157 -135 242 -165 64 -24 86 -27 207 -27 107
0 147 4 190 19 89 30 149 65 203 114 56 53 121 143 109 153 -4 4 -56 21 -117
39 l-109 32 -16 -23 c-60 -94 -198 -150 -312 -129 -78 15 -132 45 -186 105
-61 67 -89 124 -103 215 -27 173 47 340 183 416 49 27 61 29 153 29 84 0 107
-4 141 -22 44 -24 104 -76 120 -105 9 -16 19 -14 126 19 l117 36 -20 39 c-50
98 -205 205 -336 233 -84 18 -208 18 -290 0z"/>
</g>
</svg>
