<?xml version="1.0" standalone="no"?>
<!DOCTYPE svg PUBLIC "-//W3C//DTD SVG 20010904//EN"
 "http://www.w3.org/TR/2001/REC-SVG-20010904/DTD/svg10.dtd">
<svg version="1.0" xmlns="http://www.w3.org/2000/svg"
 width="260.000000pt" height="260.000000pt" viewBox="0 0 260.000000 260.000000"
 preserveAspectRatio="xMidYMid meet">
<metadata>
Created by potrace 1.11, written by Peter Selinger 2001-2013
</metadata>
<g transform="translate(0.000000,260.000000) scale(0.100000,-0.100000)"
fill="#000000" stroke="none">
<path d="M905 2161 c-203 -55 -351 -173 -436 -346 -53 -108 -70 -179 -76 -315
-23 -497 368 -990 867 -1095 92 -19 267 -19 350 1 129 30 274 117 359 215 124
144 186 368 161 582 -49 434 -380 826 -800 947 -109 32 -328 38 -425 11z m565
-668 c-1 -388 -18 -509 -82 -587 -52 -63 -98 -80 -213 -81 -84 0 -108 4 -151
23 -52 23 -52 24 -42 57 l11 33 41 -18 c101 -43 228 -32 281 25 55 58 58 78
62 458 l4 347 45 0 44 0 0 -257z"/>
</g>
</svg>
