<?xml version="1.0" standalone="no"?>
<!DOCTYPE svg PUBLIC "-//W3C//DTD SVG 20010904//EN"
 "http://www.w3.org/TR/2001/REC-SVG-20010904/DTD/svg10.dtd">
<svg version="1.0" xmlns="http://www.w3.org/2000/svg"
 width="260.000000pt" height="260.000000pt" viewBox="0 0 260.000000 260.000000"
 preserveAspectRatio="xMidYMid meet">
<metadata>
Created by potrace 1.11, written by Peter Selinger 2001-2013
</metadata>
<g transform="translate(0.000000,260.000000) scale(0.100000,-0.100000)"
fill="#000000" stroke="none">
<path d="M1347 2190 c-342 -62 -645 -302 -803 -635 -70 -148 -96 -262 -97
-425 -1 -159 14 -235 73 -355 91 -187 258 -318 462 -361 96 -21 286 -14 378
14 185 55 339 148 475 286 153 154 254 329 306 531 18 72 23 117 23 225 0 159
-15 233 -77 360 -33 68 -58 102 -127 170 -92 93 -179 144 -295 175 -72 19
-251 28 -318 15z m263 -450 c0 -19 -109 -519 -126 -578 -22 -75 -68 -178 -99
-219 -61 -79 -167 -123 -299 -123 -86 0 -134 10 -172 35 l-23 15 35 77 c20 43
39 81 43 86 4 4 24 1 44 -8 20 -8 64 -15 98 -15 56 0 64 3 93 32 47 47 68 113
131 409 31 145 58 272 61 282 5 15 19 17 110 17 63 0 104 -4 104 -10z"/>
</g>
</svg>
